<?xml version="1.0" encoding="iso-8859-1"?>
<!-- Generator: Adobe Illustrator 19.0.0, SVG Export Plug-In . SVG Version: 6.00 Build 0)  -->
<svg version="1.1" id="Capa_1" xmlns="http://www.w3.org/2000/svg" xmlns:xlink="http://www.w3.org/1999/xlink" x="0px" y="0px"
	 viewBox="0 0 511.982 511.982" style="enable-background:new 0 0 511.982 511.982;" xml:space="preserve" fill="#E5E5E5">
<g>
	<g>
		<path d="M466.693,267.017c-20.218-20.21-52.034-21.932-74.248-5.236c-20.116-15.119-48.103-15.119-68.219,0
			c-20.116-15.119-48.103-15.119-68.219,0c-20.116-15.119-48.103-15.119-68.219,0c-20.116-15.119-48.103-15.119-68.219,0
			c-22.214-16.705-54.029-14.966-74.248,5.236c-2.123,2.115-2.976,5.185-2.251,8.092l51.164,204.657
			c0.947,3.795,4.357,6.464,8.272,6.464h306.985c3.914,0,7.316-2.669,8.28-6.464l51.164-204.657
			C469.669,272.202,468.807,269.132,466.693,267.017z M402.831,469.175H109.166L60.867,275.979
			c15.571-12.313,38.296-11.248,52.674,3.095c3.326,3.334,8.724,3.334,12.049,0c15.486-15.46,40.684-15.46,56.17,0
			c3.326,3.334,8.724,3.334,12.049,0c15.486-15.46,40.684-15.46,56.17,0c3.326,3.334,8.724,3.334,12.049,0
			c15.477-15.46,40.693-15.46,56.161,0c3.334,3.334,8.724,3.334,12.058,0c15.477-15.46,40.693-15.46,56.161,0
			c3.334,3.334,8.724,3.334,12.058,0c14.36-14.335,37.094-15.383,52.673-3.095L402.831,469.175z"/>
	</g>
</g>
<g>
	<g>
		<path d="M500.103,197.647c-8.527-10.224-20.432-16.62-33.615-18.078c-1.671-4.11-4.23-10.438-7.027-17.575
			C427.202,79.227,348.964,25.752,260.134,25.752c-0.102,0.009-0.188,0-0.281,0c-87.55,0-167.674,54.797-199.438,136.489
			l-6.438,17.012h-0.222c-27.032-0.622-50.209,19.272-53.543,46.551c-1.228,13.61,2.916,26.887,11.674,37.384
			c8.758,10.497,21.071,16.944,34.655,18.18c1.612,0.145,3.257,0.188,4.861,0.205l-0.111-17.055
			c-1.032,0.043-2.106-0.034-3.189-0.145c-9.073-0.819-17.276-5.125-23.118-12.117c-5.841-6.992-8.604-15.844-7.811-24.653
			c2.243-18.266,17.882-31.696,36.395-31.304h6.31c3.539,0,6.72-2.192,7.973-5.509l8.502-22.444
			c29.206-75.118,102.934-125.54,183.526-125.54c0.085,0,0.162,0,0.256,0c81.743,0,153.757,49.211,183.449,125.395
			c4.98,12.714,9.184,22.845,9.184,22.845c1.322,3.181,4.434,5.253,7.879,5.253c0.009,0,0.017,0,0.026,0
			c1.066-0.06,2.157,0.043,3.223,0.145c9.073,0.819,17.285,5.125,23.118,12.117c5.841,7.001,8.604,15.844,7.811,24.653
			c-2.2,17.984-17.328,31.313-35.363,31.313c-0.281,0-0.554,0-0.836-0.009l-0.384,17.055c0.409,0.009,0.819,0.009,1.237,0.009
			c26.656,0,49.024-19.707,52.29-46.551C513.005,221.421,508.852,208.136,500.103,197.647z"/>
	</g>
</g>
<g>
	<g>
		<rect x="247.463" y="307.147" width="17.055" height="136.438"/>
	</g>
</g>
<g>
	<g>
		
			<rect x="200.592" y="307.069" transform="matrix(0.9981 -0.0624 0.0624 0.9981 -23.0174 13.7799)" width="17.056" height="136.7"/>
	</g>
</g>
<g>
	<g>
		
			<rect x="281.054" y="366.884" transform="matrix(0.124 -0.9923 0.9923 0.124 -66.1007 675.9473)" width="137.464" height="17.055"/>
	</g>
</g>
<g>
	<g>
		
			<rect x="234.529" y="366.858" transform="matrix(0.0625 -0.998 0.998 0.0625 -90.7087 654.2034)" width="136.688" height="17.054"/>
	</g>
</g>
<g>
	<g>
		
			<rect x="106.777" y="305.979" transform="matrix(0.9829 -0.1843 0.1843 0.9829 -67.2074 27.6802)" width="17.055" height="138.821"/>
	</g>
</g>
<g>
	<g>
		
			<rect x="153.652" y="306.639" transform="matrix(0.9923 -0.124 0.124 0.9923 -45.2939 23.0071)" width="17.055" height="137.464"/>
	</g>
</g>
<g>
	<g>
		
			<rect x="327.257" y="366.814" transform="matrix(0.1846 -0.9828 0.9828 0.1846 -45.4468 695.8962)" width="138.815" height="17.046"/>
	</g>
</g>
<g>
</g>
<g>
</g>
<g>
</g>
<g>
</g>
<g>
</g>
<g>
</g>
<g>
</g>
<g>
</g>
<g>
</g>
<g>
</g>
<g>
</g>
<g>
</g>
<g>
</g>
<g>
</g>
<g>
</g>
</svg>
